<?xml version="1.0" encoding="UTF-8" standalone="no"?>
<svg
   height="24"
   viewBox="0 -960 960 960"
   width="24"
   version="1.1"
   id="svg51"
   sodipodi:docname="closemenu.svg"
   inkscape:version="1.1.2 (0a00cf5339, 2022-02-04)"
   xmlns:inkscape="http://www.inkscape.org/namespaces/inkscape"
   xmlns:sodipodi="http://sodipodi.sourceforge.net/DTD/sodipodi-0.dtd"
   xmlns="http://www.w3.org/2000/svg"
   xmlns:svg="http://www.w3.org/2000/svg">
  <defs
     id="defs55" />
  <sodipodi:namedview
     id="namedview53"
     pagecolor="#ffffff"
     bordercolor="#666666"
     borderopacity="1.0"
     inkscape:pageshadow="2"
     inkscape:pageopacity="0.0"
     inkscape:pagecheckerboard="0"
     showgrid="false"
     inkscape:zoom="20.958333"
     inkscape:cx="11.976143"
     inkscape:cy="12"
     inkscape:window-width="1366"
     inkscape:window-height="713"
     inkscape:window-x="0"
     inkscape:window-y="0"
     inkscape:window-maximized="1"
     inkscape:current-layer="svg51" />
  <path
     d="m256-200-56-56 224-224-224-224 56-56 224 224 224-224 56 56-224 224 224 224-56 56-224-224-224 224Z"
     id="path49" />
  <path
     style="fill:#ffffff;stroke-width:0.0477137"
     d="M 5.7014953,18.274059 5.0344878,17.605773 7.8372736,14.802987 10.640059,12.000201 7.8371088,9.1969485 5.0341581,6.3936958 5.7139774,5.7138765 6.3937967,5.0340572 l 2.8030011,2.8030011 2.8030012,2.8030007 2.803253,-2.8029502 2.803252,-2.8029507 0.679769,0.6797689 0.679769,0.6797688 -2.802951,2.8032527 -2.80295,2.8032525 2.803001,2.803001 2.803001,2.803001 -0.67982,0.67982 -0.679819,0.679819 -2.803303,-2.803002 -2.803304,-2.803001 -2.7909482,2.791253 c -1.5350213,1.53519 -2.80204,2.791254 -2.8155969,2.791254 -0.013557,0 -0.3248024,-0.300729 -0.6916566,-0.668287 z"
     id="path211"
     transform="matrix(40,0,0,40,0,-960)" />
</svg>
