<?xml version="1.0" encoding="UTF-8" standalone="no"?>
<svg
   height="24"
   viewBox="0 -960 960 960"
   width="24"
   version="1.1"
   id="svg51"
   sodipodi:docname="menubutton.svg"
   inkscape:version="1.1.2 (0a00cf5339, 2022-02-04)"
   xmlns:inkscape="http://www.inkscape.org/namespaces/inkscape"
   xmlns:sodipodi="http://sodipodi.sourceforge.net/DTD/sodipodi-0.dtd"
   xmlns="http://www.w3.org/2000/svg"
   xmlns:svg="http://www.w3.org/2000/svg">
  <defs
     id="defs55" />
  <sodipodi:namedview
     id="namedview53"
     pagecolor="#ffffff"
     bordercolor="#666666"
     borderopacity="1.0"
     inkscape:pageshadow="2"
     inkscape:pageopacity="0.0"
     inkscape:pagecheckerboard="0"
     showgrid="false"
     inkscape:zoom="20.958333"
     inkscape:cx="11.976143"
     inkscape:cy="12"
     inkscape:window-width="1366"
     inkscape:window-height="713"
     inkscape:window-x="0"
     inkscape:window-y="0"
     inkscape:window-maximized="1"
     inkscape:current-layer="svg51" />
  <path
     d="M120-240v-80h720v80H120Zm0-200v-80h720v80H120Zm0-200v-80h720v80H120Z"
     id="path49" />
  <path
     style="fill:#ffffff;stroke-width:0.0477137"
     d="M 3.0059642,6.9900596 V 6.0119284 H 12 20.994036 V 6.9900596 7.9681909 H 12 3.0059642 Z"
     id="path174"
     transform="matrix(40,0,0,40,0,-960)" />
  <path
     style="fill:#ffffff;stroke-width:0.0477137"
     d="M 3.0059642,12 V 11.021869 H 12 20.994036 V 12 12.978131 H 12 3.0059642 Z"
     id="path213"
     transform="matrix(40,0,0,40,0,-960)" />
  <path
     style="fill:#ffffff;stroke-width:0.0477137"
     d="M 3.0059642,17.00994 V 16.031809 H 12 20.994036 v 0.978131 0.978132 H 12 3.0059642 Z"
     id="path252"
     transform="matrix(40,0,0,40,0,-960)" />
</svg>
